<svg viewBox="0 0 44 52" fill="none" xmlns="http://www.w3.org/2000/svg">
  <path d="M0.932226 36.1162L19.9269 3.55383C20.853 1.96622 23.1469 1.96622 24.0731 3.55383L43.0678 36.1162C43.6171 37.0579 43.4627 38.2516 42.6918 39.0225L41.1774 40.5368C40.0633 41.651 38.1961 41.4075 37.4049 40.0449L24.0755 17.0887C23.1504 15.4956 20.8496 15.4956 19.9245 17.0887L6.59512 40.0449C5.80395 41.4075 3.93669 41.651 2.82257 40.5368L1.30824 39.0225C0.537319 38.2516 0.382882 37.0579 0.932226 36.1162Z"/>
  <path d="M20.5329 36.6971C21.4702 35.7598 22.9898 35.7598 23.9271 36.6971L28.7629 41.5329C29.7002 42.4702 29.7002 43.9898 28.7629 44.9271L23.9271 49.7629C22.9898 50.7002 21.4702 50.7002 20.5329 49.7629L15.6971 44.9271C14.7598 43.9898 14.7598 42.4702 15.6971 41.5329L20.5329 36.6971Z"/>
  <style>
      path { fill: #000; }
      @media (prefers-color-scheme: dark) {
          path { fill: #FFF; }
      }
  </style>
</svg>
