<svg width="621" height="726" viewBox="0 0 621 726" fill="none" xmlns="http://www.w3.org/2000/svg">
<g filter="url(#filter0_b_14678_312)">
<path d="M11.482 518.817L284.421 45.114C295.962 25.0837 324.868 25.0836 336.409 45.114L609.349 518.817C616.122 530.574 614.162 545.414 604.568 555.008L564.593 594.983C552.976 606.6 533.502 604.045 525.275 589.824L327.727 248.348C320.025 235.034 300.805 235.034 293.103 248.348L95.5551 589.824C87.3282 604.045 67.8549 606.6 56.2378 594.983L16.2627 555.008C6.6684 545.414 4.70808 530.574 11.482 518.817Z" fill="white"/>
</g>
<g filter="url(#filter1_b_14678_312)">
<path d="M289.287 532.213C301.003 520.497 319.997 520.497 331.713 532.213L396.787 597.287C408.503 609.003 408.503 627.997 396.787 639.713L331.713 704.787C319.997 716.503 301.003 716.503 289.287 704.787L224.213 639.713C212.497 627.997 212.497 609.003 224.213 597.287L289.287 532.213Z" fill="white"/>
</g>
<defs>
<filter id="filter0_b_14678_312" x="3.47522" y="26.0912" width="613.88" height="580.216" filterUnits="userSpaceOnUse" color-interpolation-filters="sRGB">
<feFlood flood-opacity="0" result="BackgroundImageFix"/>
<feGaussianBlur in="BackgroundImageFix" stdDeviation="2"/>
<feComposite in2="SourceAlpha" operator="in" result="effect1_backgroundBlur_14678_312"/>
<feBlend mode="normal" in="SourceGraphic" in2="effect1_backgroundBlur_14678_312" result="shape"/>
</filter>
<filter id="filter1_b_14678_312" x="211.426" y="519.426" width="198.147" height="198.147" filterUnits="userSpaceOnUse" color-interpolation-filters="sRGB">
<feFlood flood-opacity="0" result="BackgroundImageFix"/>
<feGaussianBlur in="BackgroundImageFix" stdDeviation="2"/>
<feComposite in2="SourceAlpha" operator="in" result="effect1_backgroundBlur_14678_312"/>
<feBlend mode="normal" in="SourceGraphic" in2="effect1_backgroundBlur_14678_312" result="shape"/>
</filter>
</defs>
</svg>
