<svg xmlns="http://www.w3.org/2000/svg" version="1.1" xmlns:xlink="http://www.w3.org/1999/xlink" xmlns:svgjs="http://svgjs.dev/svgjs" viewBox="0 0 52 52">
<path d="M4.93223 36.1162L23.9269 3.55383C24.853 1.96622 27.1469 1.96622 28.0731 3.55383L47.0678 36.1162C47.6171 37.0579 47.4627 38.2516 46.6918 39.0225L45.1774 40.5368C44.0633 41.651 42.1961 41.4075 41.4049 40.0449L28.0755 17.0887C27.1504 15.4956 24.8496 15.4956 23.9245 17.0887L10.5951 40.0449C9.80395 41.4075 7.93669 41.651 6.82257 40.5368L5.30824 39.0225C4.53732 38.2516 4.38288 37.0579 4.93223 36.1162Z" fill="black"></path>
<path d="M24.5329 36.6971C25.4702 35.7598 26.9898 35.7598 27.9271 36.6971L32.7629 41.5329C33.7002 42.4702 33.7002 43.9898 32.7629 44.9271L27.9271 49.7629C26.9898 50.7002 25.4702 50.7002 24.5329 49.7629L19.6971 44.9271C18.7598 43.9898 18.7598 42.4702 19.6971 41.5329L24.5329 36.6971Z" fill="black"></path>
</svg>