<svg width="70" height="70" viewBox="0 0 174 173" xmlns="http://www.w3.org/2000/svg">
<path
d="M7.49936 137.975L52.1104 61.336C55.1903 56.0448 62.8298 56.0331 65.9259 61.3148L73.6543 74.4985C75.105 76.9732 75.1196 80.0353 73.6927 82.5238L37.3054 145.98C35.8795 148.466 33.232 150 30.3655 150H14.4133C8.24231 150 4.39491 143.309 7.49936 137.975Z"
fill="white"
/>
<path
d="M136.695 145.98L100.307 82.5238C98.8804 80.0353 98.895 76.9732 100.346 74.4985L108.074 61.3148C111.17 56.0331 118.81 56.0448 121.89 61.336L166.501 137.975C169.605 143.309 165.758 150 159.587 150H143.635C140.768 150 138.121 148.466 136.695 145.98Z"
fill="white"
/>
<path
d="M80.0232 12.434C83.0796 6.98689 90.9204 6.9869 93.9768 12.434L107.718 36.9238C109.128 39.4371 109.078 42.5146 107.586 44.9802L93.8445 67.689C90.7315 72.8334 83.2685 72.8334 80.1555 67.689L66.4142 44.9802C64.9222 42.5146 64.8717 39.4371 66.2819 36.9238L80.0232 12.434Z"
fill="white"
/>
<path
d="M80.0718 93C83.151 87.6667 90.849 87.6667 93.9282 93L119.909 138C122.988 143.333 119.139 150 112.981 150H61.0192C54.8608 150 51.0118 143.333 54.091 138L80.0718 93Z"
fill="white"
/>
</svg>
